<?xml version="1.0" encoding="UTF-8"?>
<svg id="Camada_1" xmlns="http://www.w3.org/2000/svg" version="1.1" viewBox="0 0 4021.09 880.59">
  <!-- Generator: Adobe Illustrator 29.7.1, SVG Export Plug-In . SVG Version: 2.1.1 Build 8)  -->
  <defs>
    <style>
      .st0 {
        fill: #fff;
      }

      .st1 {
        display: none;
        fill: #4f4f4f;
      }

      .st2 {
        fill: #c4ae6b;
      }
    </style>
  </defs>
  <g>
    <polygon class="st1" points="5364.44 196.22 5364.44 498.64 5364.44 801.05 5435.76 801.05 5507.07 801.05 5507.07 498.64 5507.07 196.22 5435.76 196.22 5364.44 196.22"/>
    <path class="st1" d="M5070.18,196.22l-.46,126.83-.46,126.83-159.33.46-159.33.46v-134.52c0-126.99-.18-134.5-3.16-134.31-1.74.12-33.63,8.51-70.86,18.67l-67.7,18.46-.46,290.97-.46,290.97h142.64v-222.07h319.57v222.07h142.63V196.22h-142.61Z"/>
    <path class="st1" d="M4320.47,672.86c-184.11,0-192.76-.15-205.84-3.49-33.53-8.58-55.17-27.91-73.6-65.77-32.35-66.46-28.38-159.34,9.58-224.07,9.75-16.64,31.64-38.59,44.84-44.99,21.51-10.43,14.65-10.09,203.79-10.11l174.23-.02,18.64-61.61c10.25-33.88,19.07-62.73,19.6-64.09,1.42-3.7-405.95-3.34-430.03.37-65.45,10.11-122.14,45.55-157.13,98.24-26.94,40.56-43.21,82.73-52.62,136.39-4.43,25.24-4.41,95.21.03,120.81,12.98,74.83,41.57,134.11,86.88,180.18,30.4,30.91,71.92,52.68,118.36,62.06,13.74,2.77,34.88,3.16,205.84,3.77l190.53.68,18.62-61.75c10.24-33.96,19.03-62.84,19.55-64.18.77-2.02-31.17-2.42-191.26-2.42Z"/>
    <path class="st1" d="M6224.67,497.96c-30.48-32.03-64.75-49.69-114.57-59.03-15.07-2.83-33.28-3.35-149.85-4.31-106.89-.88-133.93-1.58-139.02-3.6-25.19-9.98-39.42-30.86-37.48-55.01,1.58-19.72,14.05-36.76,33.6-45.92l10.2-4.78,196.92-.48,196.92-.48,18.64-61.81c10.25-33.99,19.02-62.82,19.48-64.06.67-1.8-43.66-2.21-218.27-2.02-120.51.13-225.12.93-232.48,1.79-91.97,10.66-158.98,68.55-174.51,150.77-5.54,29.31-1.79,66.37,9.7,96.06,9.06,23.4,29.59,50.74,52.77,70.28,15.77,13.29,49.64,30.8,70.35,36.38,35.99,9.69,36.88,9.75,179.64,10.85l133.6,1.04,10.21,4.79c12.05,5.65,23.14,16.48,28.95,28.27,6.02,12.22,5.87,32.14-.34,44.36-5.7,11.22-17.41,21.53-30.42,26.79l-10.2,4.12-204.2.5-204.2.49-18.61,61.79c-10.24,33.99-18.99,62.84-19.45,64.13-.68,1.9,42.02,2.22,230.93,1.74,259.23-.66,245.05.02,286.13-13.79,35.4-11.9,62.4-30.66,86.05-59.8,30.67-37.78,44.09-86.87,36.8-134.57-5.58-36.48-20.54-66.38-47.29-94.49Z"/>
    <path class="st1" d="M3620.37,196.22v191.48c0,120.39-.64,191.09-1.71,190.42-.94-.58-72.49-90-159-198.71-126.2-158.59-158.06-197.6-161.23-197.44-2.17.12-34.41,8.51-71.65,18.67l-67.7,18.46-.46,290.97-.46,290.97h142.63l.46-199.84.46-199.84,158.88,199.8,158.88,199.8,71.77.05,71.77.05V196.22h-142.63Z"/>
    <path class="st1" d="M6536.18,672.86v-110.13h377.34v-128.19h-377.34v-110.13h404.14l1.86-5.87c4.94-15.52,36.33-120.28,36.33-121.23,0-.6-131.62-1.09-292.48-1.09h-292.48v604.83h546.77l5.42-17.6c13.29-43.16,32.77-108.13,32.77-109.3,0-.71-99.53-1.29-221.17-1.29h-221.17Z"/>
    <path class="st0" d="M358.08,727.33c-.54.09-5.71,2.73-11.49,5.86-10.96,5.93-27.67,12.75-43.34,17.69-5.06,1.59-10.37,3.37-11.82,3.95-1.44.58-4.4,1.36-6.57,1.74-4.68.82-12.21,2.34-25.61,5.18-22.81,4.84-46.37,6.45-82.74,5.68-20.98-.45-40.02-1.55-47.93-2.77-7.22-1.11-16.09-2.37-19.7-2.79l-6.57-.76-5.89,8.97c-5.23,7.96-17.3,24.6-21.01,28.96-4.33,5.08-18.53,25.63-18.05,26.11.85.85,229.04.61,231.03-.24,1.58-.67,23.2-29.73,40.45-54.35,11.19-15.97,21.67-30.4,26.14-36.01,3.97-4.98,5.07-7.54,3.08-7.2Z"/>
    <path class="st2" d="M826.82,795.2c-1.68-2.39-8.88-12.62-15.98-22.73-13.87-19.73-18.42-25.97-23.74-32.57-1.86-2.31-3.8-5.08-4.29-6.17-.5-1.08-2.68-4.33-4.86-7.22-2.18-2.89-5.34-7.33-7.02-9.87-1.68-2.54-4.03-5.42-5.21-6.4s-2.15-2.37-2.15-3.09-2.82-4.93-6.27-9.36c-5.49-7.05-9.41-12.57-18.28-25.78-1.21-1.81-3.5-4.76-5.08-6.57-1.58-1.81-3.1-3.89-3.37-4.64-.51-1.4-8.44-12.34-20.52-28.31-3.79-5.01-6.89-9.62-6.89-10.25s-.95-1.92-2.11-2.88c-1.16-.96-2.65-2.95-3.31-4.43-.66-1.47-3.87-6.23-7.13-10.56-3.26-4.33-7.36-9.95-9.11-12.48-1.75-2.53-5.54-7.85-8.42-11.82-2.88-3.97-8.6-12.14-12.71-18.14-4.11-6.01-8.14-11.62-8.95-12.48-.81-.86-2.49-3.03-3.72-4.84-1.23-1.81-4.01-5.65-6.17-8.54-2.16-2.89-7.82-10.87-12.58-17.73-11.53-16.63-14.77-21.13-17.69-24.51-3.19-3.7-5.29-7.68-5.29-10.02,0-1.81,6.26-11.44,19.8-30.47,3.6-5.06,7.99-11.26,9.76-13.79,1.77-2.53,6.47-9.03,10.44-14.45,3.97-5.42,9.45-13.1,12.17-17.07,2.72-3.97,9.97-14.19,16.11-22.7,10.76-14.93,23.95-33.51,28.61-40.34,1.24-1.81,5.79-8.21,10.13-14.22,15.16-21.03,20.49-28.52,26.33-36.99,3.24-4.69,7.95-11.2,10.46-14.45,2.52-3.25,4.99-6.8,5.48-7.88s3.75-5.65,7.22-10.14c3.47-4.49,6.32-8.47,6.32-8.84s2.36-3.78,5.25-7.59c2.89-3.81,5.25-7.3,5.25-7.77,0-.47-2.51-1.14-5.58-1.49-3.07-.35-12.38-1.63-20.68-2.84-12.15-1.77-21.65-2.07-48.59-1.56-39.99.75-61.21,2.6-85.36,7.41-3.97.79-9.44,1.77-12.16,2.17-2.71.4-5.26,1.26-5.66,1.9-.4.65-2.13,1.17-3.85,1.17s-3.49.59-3.94,1.31c-.45.72-1.97,1.31-3.38,1.31s-3.59.52-4.85,1.16c-2.65,1.35-6.97,3.13-13.44,5.54-8.02,2.99-34.5,16.75-42.68,22.18-4.33,2.88-9.06,5.77-10.51,6.44-3.79,1.74-12.6,11.45-18.09,19.93-2.6,4.03-5.66,8.09-6.79,9.03-1.13.94-2.05,2.24-2.05,2.89s-2.82,4.87-6.27,9.36c-6.04,7.88-10.01,13.43-12.78,17.87-.72,1.16-2.79,3.97-4.6,6.25-1.81,2.28-4.95,6.56-6.98,9.53-5.44,7.93-8.06,8.93-12.08,4.6-1.8-1.94-5.3-6.59-7.79-10.33-2.48-3.74-5.44-7.57-6.57-8.51-1.13-.94-2.05-2.37-2.06-3.18,0-.82-1.78-3.37-3.94-5.68-2.16-2.31-3.93-4.75-3.93-5.42s-.94-2.01-2.1-2.97c-1.15-.96-4.7-5.72-7.87-10.58-3.18-4.86-6.4-9.23-7.17-9.71-.77-.48-1.96-2.14-2.64-3.69-.68-1.55-3.3-5.49-5.82-8.74-2.52-3.25-6.07-7.98-7.88-10.51-1.81-2.53-5.36-7.26-7.88-10.51-2.52-3.25-5.18-7.09-5.91-8.54-.73-1.44-3.38-5.29-5.9-8.54-2.52-3.25-5.6-7.39-6.85-9.19-1.25-1.81-5.71-7.91-9.91-13.56-4.2-5.66-9.11-12.45-10.9-15.1-4.02-5.94-14.28-20.23-37.35-51.98l-17.73-24.4h-115.24c-86.1,0-115.24.37-115.24,1.51,0,.83,1.82,3.93,4.04,6.89,7.41,9.87,21.47,29.07,30.76,42.01,5.06,7.04,12.26,17.04,16,22.23,3.74,5.18,8.18,11.37,9.85,13.75,1.67,2.38,4.52,6.34,6.33,8.81,1.81,2.47,4.76,6.62,6.57,9.22,1.81,2.6,6.25,8.68,9.87,13.52,3.62,4.83,8.81,12.03,11.52,16.01,2.72,3.97,6.99,9.88,9.5,13.13,5.25,6.81,7.75,10.23,17.71,24.3,3.97,5.61,8.4,11.85,9.85,13.86,1.44,2.01,5.88,8.2,9.85,13.76,3.97,5.56,8.85,12.03,10.83,14.4,1.99,2.36,3.61,4.64,3.61,5.06s4.3,6.55,9.57,13.62c5.26,7.07,11.73,16.14,14.36,20.17,2.64,4.03,5.72,8.09,6.85,9.03s2.05,2.42,2.05,3.31,1.26,2.73,2.8,4.11c1.54,1.38,4.18,4.57,5.87,7.1,1.69,2.53,6.02,8.73,9.63,13.79,3.61,5.06,7.98,11.27,9.71,13.81,1.73,2.54,4.12,5.42,5.3,6.4,1.18.98,2.15,2.32,2.15,2.97s2.83,4.87,6.28,9.36c7.25,9.43,14.73,20.65,14.73,22.08,0,.54-1.48,2.74-3.28,4.89-1.81,2.15-3.28,4.32-3.28,4.84s-1.33,2.59-2.95,4.61c-6.13,7.62-11.23,14.52-21.33,28.88-3.3,4.69-7.78,10.9-9.95,13.79-2.17,2.89-5.41,7.32-7.22,9.85-1.8,2.53-4.59,6.39-6.19,8.57-1.6,2.19-5.24,7.21-8.08,11.16-2.84,3.95-8.19,11.33-11.9,16.38-14.94,20.42-26.62,36.55-32.84,45.39-6.04,8.57-15.15,20.7-18.37,24.45-.73.85-3.4,4.61-5.93,8.34-2.53,3.73-6.07,8.65-7.88,10.93-1.81,2.28-3.87,5.09-4.6,6.25-3.19,5.13-6.58,9.91-8.82,12.46-1.93,2.2-2.09,3.03-.74,4.09,2.96,2.35,27.99,10.66,40.65,13.5,6.74,1.51,13.43,3.07,14.88,3.46,1.44.39,5.58.98,9.19,1.31,3.61.33,8,.91,9.75,1.29,6.97,1.5,22.62,1.7,38.84.5,20.44-1.52,45.32-5.12,55.16-7.98,2.17-.63,9.26-2.69,15.76-4.57,6.5-1.88,13.59-4.21,15.76-5.17,34.37-15.28,44.1-21.43,51.69-32.69,1.91-2.82,4.35-6.44,5.43-8.05,1.08-1.6,3.03-4.31,4.33-6.03,8.63-11.4,22.93-31.17,23.68-32.75.5-1.04,3.74-5.73,7.21-10.43,9.43-12.76,11.71-12.43,22.57,3.25,1.81,2.61,4.76,6.76,6.57,9.22,1.81,2.46,6.53,9,10.51,14.52,3.97,5.52,8.85,11.98,10.83,14.35,1.99,2.37,3.61,4.88,3.61,5.58s1.18,2.34,2.63,3.64c1.44,1.31,2.63,3.06,2.63,3.9s1.77,3.22,3.94,5.3c2.17,2.08,3.94,4.32,3.94,4.98s1.33,2.88,2.95,4.92c1.62,2.04,4.43,5.87,6.24,8.51,1.81,2.64,4.76,6.67,6.57,8.96,1.81,2.29,3.87,5.14,4.6,6.33,3.43,5.68,19.58,28.01,29.46,40.7,1.49,1.92,2.71,4.03,2.71,4.68s1.77,2.89,3.94,4.96c2.17,2.08,3.94,4.32,3.94,5s3.13,5.44,6.96,10.59c3.82,5.15,11.32,15.57,16.65,23.16,10.3,14.65,16.26,23.02,20.16,28.28l2.39,3.23h115.47c63.51,0,115.47-.31,115.47-.7,0-.72-13.96-21.03-16.38-23.85-.74-.86-2.73-3.52-4.41-5.91Z"/>
    <path class="st0" d="M615.16,141.15c0,.57-1.14,2.49-2.53,4.27-4.97,6.36-11.47,15.25-20.49,28.02-19.39,27.44-23.61,33.33-31.07,43.37-8,10.78-8.85,13.65-2.7,9.12,6.92-5.1,44.04-22.77,47.81-22.77,1.08,0,2.36-.39,2.84-.87,1.13-1.13,12.66-5.3,21.89-7.93,3.97-1.13,10.18-2.91,13.79-3.96,15.33-4.46,33.48-8.3,51.22-10.85,5.78-.83,14.35-2.06,19.04-2.74,7.84-1.13,38.06-2.9,50.56-2.96,5.1-.02,50.52,1.77,55.28,2.18,1.56.14,4.98-3.37,10.05-10.3,11.18-15.28,16.75-23.47,16.75-24.61,0-.55-52.3-1-116.22-1s-116.22.46-116.22,1.03Z"/>
    <path class="st1" d="M2249.33,694.53c-67.28-90.91-71.24-96.69-67.43-98.24,15.94-6.47,38.82-18.11,48.5-24.66,43.37-29.34,74.85-86.77,78.89-143.88,2.91-41.28-3.53-78.49-19.3-111.52-31.71-66.39-85.29-106.56-156.43-117.28-15.19-2.29-48.51-2.72-211.71-2.73-153.32,0-193.86.46-194.51,2.25-2.68,7.39-36.98,122.38-36.98,123.98,0,1.38,60.29,1.95,207.56,1.95,204.27,0,207.72.06,217.37,3.67,13.52,5.06,24.65,15.43,32.3,30.1,8.69,16.66,11.09,28.85,9.94,50.46-1.44,27.25-11.11,47.1-29.89,61.43-15.24,11.62-12.26,11.41-160.47,11.41h-134.18v-53.38c0-50.01-.2-53.32-3.16-52.41-1.74.54-33.59,9.18-70.79,19.21-37.2,10.03-68.27,18.63-69.06,19.11-.78.48-1.42,87.76-1.42,193.96v193.08h144.44v-191.38l97.04.09,97.04.09,65.82,95.6,65.82,95.6h169.21l-3.55-4.96c-1.96-2.73-35.72-48.43-75.03-101.56Z"/>
    <path class="st1" d="M1016.91,196.22v604.83h142.63v-238.32h368.31v-128.19h-368.31v-110.12l198.03-.46,198.03-.46,19.53-63.19c10.74-34.75,19.53-63.39,19.53-63.64s-129.99-.46-288.87-.46h-288.87Z"/>
    <path class="st1" d="M2921.83,467.94c-103.47-215.23-137.95-285.35-140.42-285.62-1.8-.2-34.41,8.05-72.45,18.32-38.05,10.28-69.46,18.97-69.8,19.32-.34.35-56.65,113.97-125.12,252.49-68.47,138.52-133.14,269.13-143.71,290.25l-19.22,38.39,75.92-.47,75.92-.47,104.79-225.68c57.64-124.12,105.39-226.31,106.13-227.07.73-.77,27.81,54.89,60.17,123.67l58.84,125.06-84.77.9-84.77.9-25.8,60.48-25.8,60.48,140.1.46,140.1.46,18.94,40.55,18.94,40.55,76.18.06,76.18.06-11.59-23.92c-6.38-13.16-73.31-152.29-148.73-309.18Z"/>
  </g>
  <g>
    <path class="st0" d="M922.06,443.22l14.62-34.33h47.04l-32.85-69.93-58.7,126.72h-42.17l79.89-161.9,40.26-10.81,82.86,172.71h-42.38l-10.6-22.46h-77.98Z"/>
    <path class="st0" d="M1177.84,399.57v30.3h122.91l-10.81,35.81h-152.15v-168.47h162.96l-10.81,35.81h-112.1v30.73h104.47v35.81h-104.47Z"/>
    <path class="st0" d="M1378.32,399.36c-19.07,0-33.91-5.01-44.5-15.05-10.6-10.03-15.89-21.97-15.89-35.81s5.33-26.03,16-36.13c10.67-10.1,25.46-15.15,44.4-15.15h114.43l-10.81,35.81h-103.2c-5.79,0-10.31,1.56-13.56,4.66-3.25,3.11-4.87,6.71-4.87,10.81s1.62,7.84,4.87,10.81c3.25,2.97,7.77,4.45,13.56,4.45h58.06c18.65,0,33.27,5.05,43.87,15.15,10.6,10.1,15.89,22.08,15.89,35.92s-5.23,25.61-15.68,35.71c-10.46,10.1-25.15,15.15-44.08,15.15h-118.88l10.81-35.81h107.65c5.79,0,10.31-1.45,13.56-4.34,3.25-2.89,4.87-6.46,4.87-10.7s-1.63-7.7-4.87-10.81c-3.25-3.11-7.77-4.66-13.56-4.66h-58.06Z"/>
    <path class="st0" d="M1579.21,297.21h108.08l-10.81,35.81h-92.39c-10.46,0-18.69,4.95-24.69,14.83-6.01,9.89-9.01,21.48-9.01,34.75s2.93,24.12,8.79,33.38c5.86,9.25,14.16,13.88,24.9,13.88h103.2l-10.81,35.81h-97.27c-9.04,0-17.48-1.59-25.32-4.77-7.84-3.18-14.52-7.52-20.03-13.03s-10.24-11.94-14.2-19.28c-3.96-7.34-6.89-15.12-8.79-23.31-1.91-8.19-2.86-16.6-2.86-25.22,0-10.73,1.48-20.94,4.45-30.62,2.97-9.68,7.31-18.47,13.03-26.38,5.72-7.91,13.21-14.2,22.46-18.86,9.25-4.66,19.67-6.99,31.26-6.99Z"/>
    <path class="st0" d="M1884.47,342.14c5.3,11.44,7.95,24.58,7.95,39.42s-2.65,27.94-7.95,39.31c-5.3,11.37-12.65,20.56-22.04,27.55-9.4,6.99-20.1,12.22-32.1,15.68-12.01,3.46-25.15,5.19-39.42,5.19s-26.42-1.8-38.14-5.4c-11.73-3.6-22.15-8.93-31.26-16-9.11-7.06-16.25-16.28-21.4-27.65-5.16-11.37-7.73-24.26-7.73-38.67s2.58-27.3,7.73-38.67c5.16-11.37,12.29-20.59,21.4-27.65,9.11-7.06,19.53-12.43,31.26-16.11,11.72-3.67,24.44-5.51,38.14-5.51s27.41,1.73,39.42,5.19c12.01,3.46,22.71,8.69,32.1,15.68,9.39,6.99,16.74,16.21,22.04,27.66ZM1749.06,342.14c-9.54,8.05-14.3,21.19-14.3,39.42s4.73,31.33,14.2,39.31c9.46,7.98,24.16,11.97,44.08,11.97s33.34-4.1,42.81-12.29c9.46-8.19,14.2-21.19,14.2-38.99s-4.73-30.83-14.2-39.1c-9.47-8.26-23.73-12.4-42.81-12.4s-34.44,4.03-43.97,12.08Z"/>
    <path class="st0" d="M1912.34,297.21h40.05v132.66h118.46l-10.81,35.81h-147.7v-168.47Z"/>
    <path class="st0" d="M2139.93,443.22l14.62-34.33h47.04l-32.85-69.93-58.7,126.72h-42.17l79.89-161.9,40.26-10.81,82.86,172.71h-42.38l-10.6-22.46h-77.98Z"/>
    <path class="st0" d="M847.61,561.55l40.05-10.81v82.65h63.15c10.45,0,18.68-4.91,24.69-14.73,6-9.82,9.01-21.37,9.01-34.65s-2.93-24.16-8.79-33.48c-5.86-9.32-14.17-13.99-24.9-13.99h-103.2l10.81-35.81h97.27c11.3,0,21.58,2.47,30.83,7.42,9.25,4.95,16.74,11.48,22.46,19.6,5.72,8.13,10.14,17.24,13.24,27.34,3.11,10.1,4.66,20.59,4.66,31.47s-1.48,20.95-4.45,30.62c-2.97,9.68-7.31,18.44-13.03,26.28-5.72,7.84-13.21,14.09-22.46,18.75-9.25,4.66-19.67,6.99-31.26,6.99h-108.08v-107.65Z"/>
    <path class="st0" d="M1226.61,545.66c5.3,11.44,7.95,24.58,7.95,39.42s-2.65,27.94-7.95,39.31c-5.3,11.37-12.65,20.56-22.04,27.55-9.4,6.99-20.1,12.22-32.1,15.68-12.01,3.46-25.15,5.19-39.42,5.19s-26.42-1.8-38.14-5.4c-11.73-3.6-22.15-8.93-31.26-16-9.11-7.06-16.25-16.28-21.4-27.65-5.16-11.37-7.73-24.26-7.73-38.67s2.58-27.3,7.73-38.67c5.16-11.37,12.29-20.59,21.4-27.65,9.11-7.06,19.53-12.43,31.26-16.11,11.72-3.67,24.44-5.51,38.14-5.51s27.41,1.73,39.42,5.19c12.01,3.46,22.71,8.69,32.1,15.68,9.39,6.99,16.74,16.21,22.04,27.66ZM1091.2,545.66c-9.54,8.05-14.3,21.19-14.3,39.42s4.73,31.33,14.2,39.31c9.46,7.98,24.16,11.97,44.08,11.97s33.34-4.1,42.81-12.29c9.46-8.19,14.2-21.19,14.2-38.99s-4.73-30.83-14.2-39.1c-9.47-8.26-23.73-12.4-42.81-12.4s-34.44,4.03-43.97,12.08Z"/>
    <path class="st0" d="M1367.22,603.09v66.12h-40.05v-168.47h160.84l-11.02,35.81h-109.77v30.73h102.35v35.81h-102.35Z"/>
    <path class="st0" d="M1504.75,561.34l40.05-10.81v29.67h71.84c5.65,0,10.14-2.19,13.46-6.57,3.32-4.38,4.98-9.54,4.98-15.47s-1.63-10.84-4.87-15.15c-3.25-4.31-7.77-6.46-13.56-6.46h-111.89l10.81-35.81h101.51c18.65,0,33.38,5.93,44.18,17.8,10.81,11.87,16.21,25.71,16.21,41.54,0,11.73-3.15,22.43-9.43,32.1-6.29,9.68-15.44,16.5-27.44,20.45l41.75,56.58h-47.26l-36.66-53.19h-53.61v53.19h-40.05v-107.86Z"/>
    <path class="st0" d="M1751.84,646.74l14.62-34.33h47.04l-32.85-69.93-58.7,126.72h-42.17l79.89-161.9,40.26-10.81,82.86,172.71h-42.38l-10.6-22.46h-77.98Z"/>
    <path class="st0" d="M2023.09,500.73h40.05v168.47h-40.05l-88.16-111.04v111.04h-40.05v-161.9l40.05-10.81,88.16,111.04v-106.8Z"/>
    <path class="st0" d="M2154.48,500.73h108.08l-10.81,35.81h-92.39c-10.46,0-18.68,4.95-24.69,14.83-6.01,9.89-9.01,21.48-9.01,34.75s2.93,24.13,8.79,33.38c5.86,9.25,14.16,13.88,24.9,13.88h103.2l-10.81,35.81h-97.27c-9.04,0-17.48-1.59-25.32-4.77-7.84-3.18-14.52-7.52-20.03-13.03s-10.25-11.94-14.2-19.28c-3.96-7.34-6.89-15.12-8.79-23.31-1.91-8.19-2.86-16.6-2.86-25.22,0-10.73,1.48-20.94,4.45-30.62,2.97-9.68,7.31-18.47,13.03-26.38,5.72-7.91,13.21-14.2,22.46-18.86,9.25-4.66,19.67-6.99,31.26-6.99Z"/>
    <path class="st0" d="M2280.14,507.3l40.05-10.81v75.02h88.16v-70.78h40.05v168.47h-40.05v-61.88h-88.16v61.88h-40.05v-161.9Z"/>
    <path class="st0" d="M2481.04,500.73h40.05v168.47h-40.05v-168.47Z"/>
    <path class="st0" d="M2607.13,602.88c-19.07,0-33.91-5.01-44.5-15.05-10.6-10.03-15.89-21.97-15.89-35.81s5.33-26.03,16-36.13c10.67-10.1,25.46-15.15,44.4-15.15h114.43l-10.81,35.81h-103.2c-5.79,0-10.31,1.56-13.56,4.66-3.25,3.11-4.87,6.71-4.87,10.81s1.62,7.84,4.87,10.81c3.25,2.97,7.77,4.45,13.56,4.45h58.06c18.65,0,33.27,5.05,43.87,15.15,10.6,10.1,15.89,22.08,15.89,35.92s-5.23,25.61-15.68,35.71c-10.46,10.1-25.15,15.15-44.08,15.15h-118.88l10.81-35.81h107.65c5.79,0,10.31-1.45,13.56-4.34,3.25-2.89,4.87-6.46,4.87-10.7s-1.63-7.7-4.87-10.81c-3.25-3.11-7.77-4.66-13.56-4.66h-58.06Z"/>
    <path class="st0" d="M2749.32,500.73h40.05v168.47h-40.05v-168.47Z"/>
    <path class="st0" d="M2950.22,500.73h40.05v168.47h-40.05l-88.16-111.04v111.04h-40.05v-161.9l40.05-10.81,88.16,111.04v-106.8Z"/>
    <path class="st0" d="M3189.68,583.17v86.04h-108.08c-11.59,0-22.01-2.33-31.26-6.99-9.25-4.66-16.74-10.91-22.46-18.75-5.72-7.84-10.07-16.6-13.03-26.28-2.97-9.67-4.45-19.88-4.45-30.62s1.55-21.37,4.66-31.47c3.11-10.1,7.52-19.21,13.24-27.34,5.72-8.12,13.21-14.65,22.46-19.6,9.25-4.94,19.53-7.42,30.83-7.42h97.27l10.81,35.81h-103.2c-10.74,0-19.04,4.66-24.9,13.99-5.86,9.32-8.79,20.49-8.79,33.48s3,24.83,9.01,34.65c6,9.82,14.23,14.73,24.69,14.73h63.15v-39.2l40.05-11.02Z"/>
  </g>
</svg>